<svg width="21" height="21" viewBox="0 0 21 21" fill="none" xmlns="http://www.w3.org/2000/svg">
<path d="M14 10.5C14 11.4283 13.6313 12.3185 12.9749 12.9749C12.3185 13.6313 11.4283 14 10.5 14C9.57174 14 8.6815 13.6313 8.02513 12.9749C7.36875 12.3185 7 11.4283 7 10.5C7 9.57176 7.36875 8.68152 8.02513 8.02514C8.6815 7.36876 9.57174 7.00002 10.5 7.00002C11.4283 7.00002 12.3185 7.36876 12.9749 8.02514C13.6313 8.68152 14 9.57176 14 10.5ZM14 10.5L14 11.8125C14 12.3926 14.2305 12.949 14.6407 13.3593C15.0509 13.7695 15.6073 14 16.1875 14C16.7677 14 17.3241 13.7695 17.7343 13.3593C18.1445 12.949 18.375 12.3926 18.375 11.8125V10.5C18.3772 8.80783 17.8342 7.15997 16.8266 5.80053C15.819 4.44109 14.4002 3.44237 12.7806 2.95233C11.1609 2.46228 9.42652 2.50697 7.83426 3.07978C6.24199 3.65259 4.87659 4.72305 3.9403 6.13258C3.00402 7.54211 2.54666 9.21574 2.63598 10.9055C2.7253 12.5953 3.35655 14.2114 4.43621 15.5144C5.51587 16.8174 6.98652 17.7379 8.63029 18.1397C10.2741 18.5415 12.0035 18.4031 13.5625 17.745" stroke="black" stroke-width="2" stroke-linecap="round" stroke-linejoin="round"/>
</svg>
