<svg width="121" height="39" viewBox="0 0 121 39" fill="none" xmlns="http://www.w3.org/2000/svg">
<path d="M21.44 27.44V21.68C21.44 20.56 20.512 19.792 20.064 19.6C19.936 19.536 19.872 19.472 19.872 19.344C19.872 19.216 19.936 19.12 20.064 19.088C20.544 18.928 21.44 18.256 21.44 17.2V11.12C21.44 9.712 20.288 8.56 18.88 8.56H2.88C2.176 8.56 1.6 9.136 1.6 9.84V28.72C1.6 29.424 2.176 30 2.88 30H18.88C20.288 30 21.44 28.848 21.44 27.44ZM17.376 17.104C17.376 17.264 17.216 17.424 17.056 17.424H5.984C5.824 17.424 5.664 17.264 5.664 17.104V12.624C5.664 12.464 5.824 12.304 5.984 12.304H17.056C17.216 12.304 17.376 12.464 17.376 12.624V17.104ZM17.376 25.936C17.376 26.096 17.216 26.256 17.056 26.256H5.984C5.824 26.256 5.664 26.096 5.664 25.936V21.456C5.664 21.296 5.824 21.136 5.984 21.136H17.056C17.216 21.136 17.376 21.296 17.376 21.456V25.936ZM38.3913 28.72V17.52C38.3913 16.816 37.8153 16.24 37.1113 16.24H26.3593C25.6553 16.24 25.0793 16.816 25.0793 17.52V18.384C25.0793 19.088 25.6553 19.664 26.3593 19.664H34.3273C34.4873 19.664 34.6473 19.824 34.6473 19.984V21.36C34.6473 21.52 34.4873 21.68 34.3273 21.68H25.9113C25.2073 21.68 24.6313 22.256 24.6313 22.96V28.72C24.6313 29.424 25.2073 30 25.9113 30H37.1113C37.8153 30 38.3913 29.424 38.3913 28.72ZM34.6473 26.384C34.6473 26.544 34.4873 26.704 34.3273 26.704H28.3753C28.2153 26.704 28.0553 26.544 28.0553 26.384V24.816C28.0553 24.656 28.2153 24.496 28.3753 24.496H34.3273C34.4873 24.496 34.6473 24.656 34.6473 24.816V26.384ZM55.36 28.72V17.52C55.36 16.816 54.784 16.24 54.08 16.24H43.328C42.624 16.24 42.048 16.816 42.048 17.52V18.384C42.048 19.088 42.624 19.664 43.328 19.664H51.296C51.456 19.664 51.616 19.824 51.616 19.984V21.36C51.616 21.52 51.456 21.68 51.296 21.68H42.88C42.176 21.68 41.6 22.256 41.6 22.96V28.72C41.6 29.424 42.176 30 42.88 30H54.08C54.784 30 55.36 29.424 55.36 28.72ZM51.616 26.384C51.616 26.544 51.456 26.704 51.296 26.704H45.344C45.184 26.704 45.024 26.544 45.024 26.384V24.816C45.024 24.656 45.184 24.496 45.344 24.496H51.296C51.456 24.496 51.616 24.656 51.616 24.816V26.384ZM71.3688 18.544V17.52C71.3688 16.816 70.7928 16.24 70.0888 16.24H59.8488C59.1448 16.24 58.5688 16.816 58.5688 17.52V28.72C58.5688 29.424 59.1448 30 59.8488 30H61.0328C61.7368 30 62.3128 29.424 62.3128 28.72V20.144C62.3128 19.984 62.4728 19.824 62.6328 19.824H70.0888C70.7928 19.824 71.3688 19.248 71.3688 18.544ZM86.735 28.72V17.52C86.735 16.816 86.159 16.24 85.455 16.24H74.703C73.999 16.24 73.423 16.816 73.423 17.52V18.384C73.423 19.088 73.999 19.664 74.703 19.664H82.671C82.831 19.664 82.991 19.824 82.991 19.984V21.36C82.991 21.52 82.831 21.68 82.671 21.68H74.255C73.551 21.68 72.975 22.256 72.975 22.96V28.72C72.975 29.424 73.551 30 74.255 30H85.455C86.159 30 86.735 29.424 86.735 28.72ZM82.991 26.384C82.991 26.544 82.831 26.704 82.671 26.704H76.719C76.559 26.704 76.399 26.544 76.399 26.384V24.816C76.399 24.656 76.559 24.496 76.719 24.496H82.671C82.831 24.496 82.991 24.656 82.991 24.816V26.384ZM102.744 18.544V17.52C102.744 16.816 102.168 16.24 101.464 16.24H91.2238C90.5198 16.24 89.9438 16.816 89.9438 17.52V28.72C89.9438 29.424 90.5198 30 91.2238 30H92.4078C93.1118 30 93.6878 29.424 93.6878 28.72V20.144C93.6878 19.984 93.8478 19.824 94.0078 19.824H101.464C102.168 19.824 102.744 19.248 102.744 18.544Z" fill="white"/>
<path d="M102.16 10.36C102.16 10.712 101.872 11 101.52 11H95.44C95.088 11 94.8 10.712 94.8 10.36V4.76C94.8 4.408 95.088 4.12 95.44 4.12H100.128C100.208 4.12 100.288 4.04 100.288 3.96V0.919999C100.288 0.568 100.576 0.28 100.928 0.28H101.52C101.872 0.28 102.16 0.568 102.16 0.919999V10.36ZM100.288 9.048V6.072C100.288 5.992 100.208 5.912 100.128 5.912H96.832C96.752 5.912 96.672 5.992 96.672 6.072V9.048C96.672 9.128 96.752 9.208 96.832 9.208H100.128C100.208 9.208 100.288 9.128 100.288 9.048ZM111.113 10.36C111.113 10.712 110.825 11 110.473 11H104.393C104.041 11 103.753 10.712 103.753 10.36V4.76C103.753 4.408 104.041 4.12 104.393 4.12H110.473C110.825 4.12 111.113 4.408 111.113 4.76V7.64C111.113 7.992 110.825 8.28 110.473 8.28H105.785C105.705 8.28 105.625 8.36 105.625 8.44V9.128C105.625 9.208 105.705 9.288 105.785 9.288H110.473C110.825 9.288 111.113 9.576 111.113 9.928V10.36ZM109.401 6.648V5.928C109.401 5.848 109.321 5.768 109.241 5.768H105.785C105.705 5.768 105.625 5.848 105.625 5.928V6.648C105.625 6.728 105.705 6.808 105.785 6.808H109.241C109.321 6.808 109.401 6.728 109.401 6.648ZM119.81 8.472C119.81 8.744 119.714 8.952 119.554 9.112L117.858 10.808C117.73 10.936 117.602 11 117.41 11H114.946C114.754 11 114.626 10.936 114.498 10.808L112.802 9.112C112.642 8.952 112.546 8.744 112.546 8.472V4.76C112.546 4.408 112.834 4.12 113.186 4.12H113.778C114.13 4.12 114.418 4.408 114.418 4.76V7.992C114.418 8.12 114.45 8.184 114.53 8.264L115.394 9.128C115.442 9.176 115.49 9.208 115.554 9.208H116.818C116.882 9.208 116.93 9.176 116.978 9.128L117.842 8.264C117.922 8.184 117.954 8.12 117.954 7.992V4.76C117.954 4.408 118.242 4.12 118.594 4.12H119.17C119.522 4.12 119.81 4.408 119.81 4.76V8.472Z" fill="#6AFF79"/>
</svg>
